           <svg
                width="80"
                height="80"
                viewBox="0 0 80 80"
                fill="none"
                xmlns="http://www.w3.org/2000/svg"
              >
                <path d="M5 5H75V75H5V5Z" fill="#F5DE19" />
                <path
                  d="M52.0222 59.688C52.6186 60.8995 53.5452 61.9178 54.6953 62.6255C55.8453 63.3332 57.1719 63.7015 58.5222 63.688C61.2472 63.688 62.9897 62.3255 62.9897 60.438C62.9897 58.188 61.1997 57.383 58.1997 56.0705L56.5547 55.3655C51.8047 53.343 48.6547 50.8105 48.6547 45.4555C48.6547 40.523 52.4047 36.7655 58.2872 36.7655C60.1915 36.628 62.0941 37.0542 63.7577 37.9909C65.4213 38.9276 66.7723 40.3334 67.6422 42.033L62.4997 45.3205C62.1647 44.4778 61.5815 43.7568 60.8274 43.2532C60.0733 42.7496 59.1839 42.4871 58.2772 42.5005C57.8816 42.4609 57.4821 42.5041 57.1041 42.6275C56.7262 42.7508 56.378 42.9515 56.0819 43.2168C55.7858 43.4821 55.5482 43.8062 55.3843 44.1684C55.2203 44.5306 55.1336 44.9229 55.1297 45.3205C55.1297 47.293 56.3522 48.093 59.1747 49.3205L60.8197 50.0255C66.4097 52.423 69.5697 54.8655 69.5697 60.358C69.5697 66.2805 64.9172 69.5255 58.6697 69.5255C56.2354 69.6806 53.8083 69.1279 51.6812 67.9342C49.5541 66.7404 47.8179 64.9566 46.6822 62.798L52.0222 59.688ZM28.7847 60.258C29.8172 62.0905 30.7572 63.6405 33.0172 63.6405C35.1772 63.6405 36.5422 62.7955 36.5422 59.508V37.1405H43.1197V59.5955C43.1197 66.4055 39.1197 69.5055 33.2972 69.5055C31.2391 69.618 29.1951 69.1051 27.4339 68.0342C25.6727 66.9633 24.2768 65.3846 23.4297 63.5055L28.7847 60.258Z"
                  fill="black"
                />
              </svg>